# xmcd
#
# Track frame offsets: 
#        150
#        7766
#        21889
#        38306
#        62436
#        83572
#        108939
#        125754
#        144511
#        163502
#        175350
#        189760
#        223168
#        236791
#        272896
#        291456
#
# Disc length: 3940 seconds
#
# Revision: 0
# Processed by: cddbd v1.5.1PL0 Copyright (c) Steve Scherf et al.
# Submitted via: ExactAudioCopy v0.95b2
#
DISCID=d70f6210
DTITLE=livesavas - spirit in stone
DYEAR=2003
DGENRE=Hip-Hop
TTITLE0=soldierfied
TTITLE1=it's over
TTITLE2=what if it's true?
TTITLE3=livin' time/life:movement 1 feat. gift of gab
TTITLE4=fever
TTITLE5=hellohihey
TTITLE6=head exercise
TTITLE7=selector feat. j live
TTITLE8=fa' show
TTITLE9=state of the world apocalypse war
TTITLE10=resist
TTITLE11=5th horseman
TTITLE12=skeletons
TTITLE13=emerge feat. quannum
TTITLE14=me
TTITLE15=spirit in stone outro
EXTD=
EXTT0=
EXTT1=
EXTT2=
EXTT3=
EXTT4=
EXTT5=
EXTT6=
EXTT7=
EXTT8=
EXTT9=
EXTT10=
EXTT11=
EXTT12=
EXTT13=
EXTT14=
EXTT15=
PLAYORDER=
